<svg xmlns="http://www.w3.org/2000/svg" width="104" height="31" fill="none"><path fill="#fff" d="M49.194 18.81v10.531h3.422V18.126c0-1.42-.304-2.674-.912-3.764a6.552 6.552 0 0 0-2.51-2.547c-1.039-.608-2.243-.913-3.611-.913-1.37 0-2.598.317-3.688.95a6.59 6.59 0 0 0-2.053 1.764V2.196H36.42v27.145h3.422v-10.53c0-.913.203-1.724.608-2.434a4.418 4.418 0 0 1 1.673-1.673c.71-.405 1.52-.608 2.433-.608 1.369 0 2.484.444 3.346 1.33.861.888 1.292 2.016 1.292 3.384Zm9.423 9.923c1.192.66 2.535.989 4.03.989 1.521 0 2.852-.33 3.992-.989a7.299 7.299 0 0 0 2.738-2.813c.659-1.192.988-2.573.988-4.144V11.283h-3.422v10.34c0 1.496-.38 2.675-1.14 3.536-.76.837-1.812 1.255-3.156 1.255-.887 0-1.66-.19-2.319-.57a3.8 3.8 0 0 1-1.52-1.635c-.33-.735-.495-1.597-.495-2.585V11.283h-3.422v10.493c0 1.571.33 2.953.989 4.144a7.299 7.299 0 0 0 2.737 2.813Z"/><path fill="#fff" fill-rule="evenodd" d="M81.414 29.722c-1.8 0-3.421-.406-4.866-1.217a9.323 9.323 0 0 1-3.422-3.384c-.836-1.419-1.254-3.028-1.254-4.828 0-1.774.405-3.371 1.216-4.79a9.206 9.206 0 0 1 3.346-3.346c1.42-.837 3.003-1.255 4.752-1.255 1.673 0 3.143.38 4.41 1.14a7.83 7.83 0 0 1 3.004 3.156c.735 1.344 1.102 2.864 1.102 4.563 0 .253-.012.532-.038.836a9.583 9.583 0 0 1-.152.989H75.37c.12.703.335 1.35.646 1.939a5.497 5.497 0 0 0 2.167 2.205c.938.506 2.015.76 3.231.76 1.014 0 1.94-.177 2.776-.532a5.748 5.748 0 0 0 2.205-1.597l2.205 2.243a8.386 8.386 0 0 1-3.194 2.32 10.025 10.025 0 0 1-3.992.798Zm-5.436-12.775a6.096 6.096 0 0 0-.601 1.787h10.99c-.093-.747-.287-1.406-.58-1.977-.431-.862-1.04-1.52-1.825-1.977-.786-.481-1.737-.722-2.852-.722-1.166 0-2.192.253-3.08.76a5.193 5.193 0 0 0-2.052 2.13Z" clip-rule="evenodd"/><path fill="#fff" d="M91.912 28.2c.76.482 1.585.863 2.472 1.141.912.254 1.875.38 2.89.38 2.027 0 3.636-.494 4.828-1.482 1.216-.989 1.824-2.332 1.824-4.03 0-1.115-.24-2.015-.722-2.7a5.036 5.036 0 0 0-1.787-1.634 10.884 10.884 0 0 0-2.319-.95 204.58 204.58 0 0 0-2.357-.723c-.735-.228-1.33-.507-1.787-.837-.456-.329-.684-.798-.684-1.406 0-.608.253-1.077.76-1.407.532-.355 1.293-.532 2.281-.532.938 0 1.774.177 2.51.532.76.355 1.393.862 1.9 1.52l2.205-2.204a6.462 6.462 0 0 0-2.737-2.205c-1.09-.507-2.344-.76-3.764-.76-1.343 0-2.496.215-3.46.646-.937.43-1.672 1.052-2.205 1.863-.532.785-.798 1.723-.798 2.813s.228 1.964.684 2.623a5.168 5.168 0 0 0 1.825 1.559c.735.38 1.508.697 2.32.95.836.229 1.622.47 2.357.723.735.228 1.33.532 1.787.912.481.355.722.862.722 1.521 0 .659-.292 1.179-.875 1.559-.583.355-1.406.532-2.47.532-1.065 0-2.028-.19-2.89-.57-.862-.406-1.622-1.014-2.281-1.825l-2.206 2.205a8.895 8.895 0 0 0 1.977 1.787Zm8.812-22.98v.673h-.812v2.05h-.77v-2.05h-.81v-.674h2.392Zm3.161-.042v2.777h-.77V6.607l-.564.633h-.231l-.564-.633v1.348h-.77V5.178h.272l1.178 1.184 1.177-1.184h.272ZM3.607 9.65a6.48 6.48 0 0 0 8.115 4.257C15.139 12.842 23.23 7.28 22.165 3.863 21.099.446 11.28.47 7.863 1.535a6.48 6.48 0 0 0-4.256 8.116ZM1.542 28.385a5.135 5.135 0 0 0 7.261 0c2.006-2.006 5.636-8.888 3.631-10.893-2.005-2.005-8.887 1.626-10.892 3.63a5.135 5.135 0 0 0 0 7.263Zm19.188 1.971a6.48 6.48 0 0 0 7.937-4.582c.926-3.457.551-13.27-2.905-14.196-3.457-.926-8.688 7.385-9.614 10.842a6.48 6.48 0 0 0 4.582 7.936Z"/></svg>