<svg xmlns="http://www.w3.org/2000/svg" width="40" height="40" fill="none"><rect width="40" height="40" fill="#fff" rx="20"/><path fill="#6637ED" d="M20 16.875a3.125 3.125 0 1 0 0 6.25 3.125 3.125 0 0 0 0-6.25Zm0 5a1.875 1.875 0 1 1 0-3.75 1.875 1.875 0 0 1 0 3.75Zm8.75-7.5h-17.5a.624.624 0 0 0-.625.625v10a.624.624 0 0 0 .625.625h17.5a.624.624 0 0 0 .625-.625V15a.624.624 0 0 0-.625-.625Zm-3.621 10H14.87a4.435 4.435 0 0 0-2.996-2.996V18.62a4.435 4.435 0 0 0 2.996-2.996h10.26a4.435 4.435 0 0 0 2.996 2.996v2.758a4.435 4.435 0 0 0-2.996 2.996Zm2.996-7.08a3.188 3.188 0 0 1-1.67-1.67h1.67v1.67Zm-14.58-1.67a3.188 3.188 0 0 1-1.67 1.67v-1.67h1.67Zm-1.67 7.08c.75.323 1.347.92 1.67 1.67h-1.67v-1.67Zm14.58 1.67c.323-.75.92-1.347 1.67-1.67v1.67h-1.67Z"/><rect width="39" height="39" x=".5" y=".5" stroke="#E9E9EF" rx="19.5"/></svg>