<svg xmlns="http://www.w3.org/2000/svg" width="41" height="40" fill="none"><path fill="#5E41E4" d="M.645 20c0-11.046 8.954-20 20-20 11.045 0 20 8.954 20 20s-8.955 20-20 20c-11.046 0-20-8.954-20-20Z"/><path fill="#fff" d="M20.645 15a8 8 0 1 1 0 16 8 8 0 0 1 0-16Zm0 3.5-1.323 2.68-2.957.43 2.14 2.085L18 26.641l2.645-1.391 2.645 1.39-.506-2.945 2.14-2.086-2.957-.43-1.322-2.679Zm1-8.501 5 .001v3l-1.364 1.138a9.935 9.935 0 0 0-3.635-1.088l-.002-3.051Zm-2 0v3.05a9.936 9.936 0 0 0-3.636 1.088L14.645 13v-3l5-.001Z"/></svg>