<svg xmlns="http://www.w3.org/2000/svg" width="40" height="40" fill="none"><rect width="40" height="40" fill="#fff" rx="20"/><path fill="#6637ED" d="M28.125 23.125H27.5v-7.5a1.875 1.875 0 0 0-1.875-1.875h-11.25a1.875 1.875 0 0 0-1.875 1.875v7.5h-.625a.624.624 0 0 0-.625.625V25a1.875 1.875 0 0 0 1.875 1.875h13.75A1.875 1.875 0 0 0 28.75 25v-1.25a.624.624 0 0 0-.625-.625Zm-14.375-7.5a.624.624 0 0 1 .625-.625h11.25a.624.624 0 0 1 .625.625v7.5h-12.5v-7.5ZM27.5 25a.624.624 0 0 1-.625.625h-13.75A.624.624 0 0 1 12.5 25v-.625h15V25Zm-5.625-8.125a.624.624 0 0 1-.625.625h-2.5a.624.624 0 1 1 0-1.25h2.5a.624.624 0 0 1 .625.625Z"/><rect width="39" height="39" x=".5" y=".5" stroke="#E9E9EF" rx="19.5"/></svg>