<svg xmlns="http://www.w3.org/2000/svg" width="120" height="32" fill="none"><g clip-path="url(#a)"><path fill="#080808" d="M11.25 6.625 0 13.188l11.25 6.562 9.375-5.469v6.875H22.5v-7.968L11.25 6.625Zm-7.5 10.772v4.228a9.36 9.36 0 0 0 7.5 3.75 9.36 9.36 0 0 0 7.5-3.75v-4.227l-7.5 4.375-7.5-4.376Z"/></g><path fill="#080808" d="M31.575 24.5V8.3h10.463v2.542h-7.752v3.994h6.401v2.543h-6.4v4.578h7.75V24.5H31.576Zm18.033.337c-1.118 0-2.093-.28-2.925-.843-.833-.563-1.478-1.328-1.935-2.295-.458-.968-.686-2.059-.686-3.274 0-1.23.228-2.325.686-3.285.465-.968 1.121-1.729 1.969-2.284.847-.562 1.845-.844 2.992-.844 1.155 0 2.123.282 2.903.844.787.555 1.383 1.316 1.788 2.284.405.968.608 2.063.608 3.285 0 1.207-.203 2.299-.608 3.274-.405.967-1.008 1.732-1.81 2.295-.803.562-1.797.843-2.982.843Zm.416-2.43c.728 0 1.313-.165 1.755-.494.45-.338.776-.807.979-1.407.21-.6.315-1.294.315-2.081 0-.795-.105-1.489-.315-2.081-.203-.6-.521-1.065-.956-1.395-.435-.338-.998-.506-1.688-.506-.727 0-1.327.18-1.8.54-.472.352-.821.832-1.046 1.44-.225.6-.338 1.267-.338 2.002 0 .742.11 1.418.327 2.025.225.6.566 1.076 1.023 1.429.458.352 1.04.528 1.744.528Zm3.049 2.093v-8.527h-.338V8.3h2.734v16.2h-2.396Zm10.107.349c-.9 0-1.643-.15-2.228-.45-.585-.3-1.05-.683-1.395-1.148-.345-.465-.6-.96-.765-1.485a7.949 7.949 0 0 1-.326-1.485 12.646 12.646 0 0 1-.068-1.147V12.35h2.745v5.85c0 .375.027.799.08 1.271.052.465.172.915.36 1.35.194.428.48.78.854 1.058.383.277.896.416 1.541.416.345 0 .687-.056 1.024-.169.338-.112.641-.303.911-.574.278-.277.5-.656.664-1.136.165-.48.248-1.087.248-1.822l1.608.686c0 1.035-.202 1.973-.607 2.813a4.784 4.784 0 0 1-1.766 2.013c-.78.495-1.74.743-2.88.743Zm3.97-.349v-3.769h-.325V12.35h2.722V24.5h-2.396Zm10.834.337c-1.252 0-2.321-.277-3.206-.832a5.543 5.543 0 0 1-2.036-2.295c-.465-.968-.702-2.063-.71-3.285.008-1.245.252-2.348.732-3.308a5.518 5.518 0 0 1 2.07-2.272c.893-.555 1.954-.833 3.184-.833 1.38 0 2.546.35 3.499 1.047.96.69 1.586 1.635 1.878 2.835l-2.7.731c-.21-.652-.558-1.159-1.046-1.519a2.694 2.694 0 0 0-1.665-.551c-.705 0-1.286.169-1.744.506-.457.33-.795.788-1.012 1.373-.218.585-.326 1.248-.326 1.991 0 1.155.258 2.089.776 2.801.517.713 1.286 1.069 2.306 1.069.72 0 1.286-.165 1.699-.495.42-.33.735-.806.945-1.429l2.767.619c-.375 1.238-1.03 2.19-1.968 2.858-.938.66-2.085.99-3.443.99Zm12.702 0c-1.215 0-2.276-.273-3.183-.82a5.64 5.64 0 0 1-2.115-2.262c-.495-.967-.743-2.078-.743-3.33 0-1.275.255-2.393.765-3.353a5.64 5.64 0 0 1 2.126-2.25c.908-.54 1.958-.81 3.15-.81 1.223 0 2.288.274 3.195.822a5.623 5.623 0 0 1 2.115 2.272c.503.96.754 2.066.754 3.319 0 1.26-.255 2.374-.765 3.341a5.641 5.641 0 0 1-2.115 2.262c-.907.54-1.969.81-3.184.81Zm0-2.542c1.08 0 1.883-.36 2.408-1.08.525-.72.787-1.65.787-2.79 0-1.178-.266-2.115-.798-2.813-.533-.704-1.332-1.057-2.397-1.057-.727 0-1.327.165-1.8.495-.465.322-.81.776-1.035 1.361-.225.578-.337 1.249-.337 2.014 0 1.177.266 2.119.799 2.824.54.697 1.33 1.046 2.373 1.046ZM99.23 24.5V12.35h2.396v2.959l-.292-.383c.15-.405.348-.772.596-1.102.255-.338.559-.615.911-.833.3-.202.63-.36.99-.472a4.46 4.46 0 0 1 1.125-.214c.383-.03.754-.015 1.114.045v2.531c-.36-.105-.776-.139-1.249-.101a2.86 2.86 0 0 0-1.26.394 2.83 2.83 0 0 0-.922.776 3.277 3.277 0 0 0-.518 1.08 4.754 4.754 0 0 0-.169 1.294V24.5H99.23Zm14.291.337c-1.23 0-2.31-.266-3.24-.798a5.69 5.69 0 0 1-2.183-2.216c-.517-.945-.776-2.033-.776-3.263 0-1.327.255-2.479.765-3.454.51-.982 1.219-1.743 2.126-2.284.908-.54 1.958-.81 3.15-.81 1.26 0 2.329.297 3.206.89.885.584 1.542 1.413 1.969 2.486.428 1.072.589 2.336.484 3.79h-2.689v-.99c-.007-1.32-.24-2.283-.697-2.89-.458-.608-1.178-.912-2.16-.912-1.11 0-1.935.345-2.475 1.035-.54.683-.81 1.684-.81 3.004 0 1.23.27 2.183.81 2.857.54.675 1.327 1.013 2.362 1.013.668 0 1.241-.146 1.721-.439.488-.3.863-.731 1.125-1.294l2.678.81c-.465 1.096-1.185 1.947-2.16 2.554a5.91 5.91 0 0 1-3.206.912Zm-4.185-5.658V17.13h8.358v2.048h-8.358Z"/><defs><clipPath id="a"><path fill="#fff" d="M0 4.75h22.5v22.5H0z"/></clipPath></defs></svg>