<svg xmlns="http://www.w3.org/2000/svg" width="40" height="40" fill="none"><rect width="40" height="40" fill="#fff" rx="20"/><path fill="#6637ED" d="M28.125 12.5a.625.625 0 0 0-.625-.625c-3.444 0-6.977 3.884-8.94 6.456a4.686 4.686 0 0 0-6.06 4.482c0 2.412-1.527 3.494-1.6 3.544a.625.625 0 0 0 .35 1.143h5.937a4.687 4.687 0 0 0 4.482-6.06c2.573-1.963 6.456-5.496 6.456-8.94ZM17.187 26.25h-4.482c.528-.75 1.045-1.881 1.045-3.438a3.438 3.438 0 1 1 3.437 3.438Zm2.533-7.379c.268-.347.53-.674.789-.98a5.97 5.97 0 0 1 1.6 1.6c-.307.258-.634.52-.98.789a4.73 4.73 0 0 0-1.409-1.409Zm3.336-.21a7.232 7.232 0 0 0-1.719-1.718c2.483-2.698 4.356-3.516 5.461-3.743-.222 1.106-1.044 2.979-3.742 5.462Z"/><rect width="39" height="39" x=".5" y=".5" stroke="#E9E9EF" rx="19.5"/></svg>