<svg xmlns="http://www.w3.org/2000/svg" width="40" height="40" fill="none"><rect width="40" height="40" fill="#fff" rx="20"/><path fill="#6637ED" d="M26.875 14.375H23.75v-.625a1.875 1.875 0 0 0-1.875-1.875h-3.75a1.875 1.875 0 0 0-1.875 1.875v.625h-3.125a1.25 1.25 0 0 0-1.25 1.25v10a1.25 1.25 0 0 0 1.25 1.25h13.75a1.25 1.25 0 0 0 1.25-1.25v-10a1.25 1.25 0 0 0-1.25-1.25ZM17.5 13.75a.624.624 0 0 1 .625-.625h3.75a.624.624 0 0 1 .625.625v.625h-5v-.625Zm9.375 1.875v3.25a14.382 14.382 0 0 1-13.75 0v-3.25h13.75Zm0 10h-13.75v-5.34a15.64 15.64 0 0 0 13.75-.001v5.341Zm-8.75-6.875a.624.624 0 0 1 .625-.625h2.5a.624.624 0 1 1 0 1.25h-2.5a.624.624 0 0 1-.625-.625Z"/><rect width="39" height="39" x=".5" y=".5" stroke="#E9E9EF" rx="19.5"/></svg>