<svg xmlns="http://www.w3.org/2000/svg" width="135" height="34" fill="none"><path fill="#fff" fill-rule="evenodd" d="M33.908 15.441c.66 3.147.355 6.074-.711 8.515h.056c-.914 2.5-3.954 7.734-11.112 9.235-.272.057-.544.103-.815.137-.683.1-1.392.152-2.123.152-8.476 0-16.811-6.978-18.616-15.585-.86-4.1-.082-7.83 1.884-10.613.913-1.758 5.703-6.02 9.569-6.849.104-.022.205-.04.301-.053a13.753 13.753 0 0 1 3.26-.38c8.323 0 16.52 6.913 18.307 15.441Zm-2.914-.721c1.404 6.694-2.758 12.122-9.295 12.122S8.725 21.415 7.321 14.72C5.918 8.025 10.08 2.598 16.617 2.598c6.537 0 12.974 5.427 14.377 12.122ZM21.3 23.09c4.839 0 7.94-3.922 6.925-8.759-1.014-4.837-5.758-8.759-10.597-8.759-4.839 0-7.939 3.922-6.925 8.759 1.014 4.837 5.759 8.759 10.597 8.759Zm4.31-9.122c.637 3.035-1.361 5.495-4.462 5.495-3.1 0-6.13-2.46-6.765-5.495-.637-3.034 1.361-5.494 4.462-5.494 3.1 0 6.13 2.46 6.765 5.494Zm-2.843 0c.314 1.498-.671 2.712-2.202 2.712-1.53 0-3.025-1.214-3.339-2.712-.314-1.497.672-2.711 2.202-2.711 1.53 0 3.025 1.214 3.34 2.711Z" clip-rule="evenodd"/><path fill="#fff" d="M56.337 24.413c0 .192.156.348.35.348h2.65a.349.349 0 0 0 .349-.348V11.68h-3a.349.349 0 0 0-.349.349v12.384Zm.108-14.805c.322.338.811.506 1.47.506.658 0 1.14-.168 1.445-.506.305-.353.458-.787.458-1.3 0-.547-.153-.988-.458-1.326-.305-.337-.787-.505-1.445-.505-.659 0-1.148.168-1.47.505-.305.338-.458.78-.458 1.325 0 .514.153.948.458 1.301Z"/><path fill="#fff" fill-rule="evenodd" d="M51.059 18.642c-1.028.482-2.28.723-3.758.723h-2.65v5.048a.349.349 0 0 1-.349.348H41.58a.349.349 0 0 1-.349-.348V7.403c0-.192.156-.348.349-.348h2.723c.038 0 .074.006.108.017a.349.349 0 0 1 .108-.017H47.3c1.477 0 2.73.24 3.758.722 1.044.482 1.839 1.173 2.385 2.072.546.884.819 1.935.819 3.156v.386c0 1.22-.273 2.28-.82 3.18-.545.883-1.34 1.573-2.384 2.071Zm-1.735-8.215c-.465-.273-1.043-.41-1.734-.41h-2.94v6.385h2.94c.69 0 1.269-.137 1.734-.41.482-.273.844-.65 1.084-1.132.258-.482.386-1.036.386-1.662 0-.627-.128-1.18-.386-1.662a2.494 2.494 0 0 0-1.084-1.109Z" clip-rule="evenodd"/><path fill="#fff" d="M62.69 24.761a.349.349 0 0 1-.35-.348V12.029a.35.35 0 0 1 .35-.349h1.952c.193 0 .349.156.349.349v2.875a6.4 6.4 0 0 1 .289-.935c.353-.9.875-1.574 1.566-2.024.706-.45 1.581-.674 2.626-.674h.144c1.558 0 2.738.505 3.541 1.517.803.996 1.205 2.49 1.205 4.481v7.144a.349.349 0 0 1-.349.348h-2.651a.349.349 0 0 1-.349-.348V16.98c0-.803-.233-1.453-.698-1.951-.45-.498-1.076-.747-1.88-.747-.819 0-1.485.257-1.999.77-.498.499-.747 1.173-.747 2.024v7.337a.349.349 0 0 1-.348.348h-2.652Z"/><path fill="#fff" fill-rule="evenodd" d="M86.851 18.642c-1.028.482-2.28.723-3.758.723h-2.65v5.048a.349.349 0 0 1-.349.348h-2.723a.349.349 0 0 1-.349-.348V7.403c0-.192.156-.348.35-.348h2.722c.038 0 .074.006.108.017a.349.349 0 0 1 .108-.017h2.783c1.478 0 2.73.24 3.758.722 1.044.482 1.84 1.173 2.385 2.072.546.884.82 1.935.82 3.156v.386c0 1.22-.274 2.28-.82 3.18-.546.883-1.34 1.573-2.385 2.071Zm-1.734-8.215c-.466-.273-1.044-.41-1.735-.41h-2.939v6.385h2.94c.69 0 1.268-.137 1.734-.41a2.63 2.63 0 0 0 1.084-1.132c.257-.482.385-1.036.385-1.662 0-.627-.128-1.18-.385-1.662a2.494 2.494 0 0 0-1.084-1.109Zm12.392 14.792c-1.157 0-2.176-.185-3.06-.554-.883-.37-1.63-.867-2.24-1.494a6.782 6.782 0 0 1-1.397-2.168 6.994 6.994 0 0 1-.458-2.505v-.506c0-.9.16-1.75.482-2.554a6.77 6.77 0 0 1 1.421-2.168 6.479 6.479 0 0 1 2.264-1.493c.884-.37 1.88-.555 2.988-.555s2.104.185 2.987.555c.883.353 1.63.85 2.24 1.493a6.266 6.266 0 0 1 1.422 2.168c.321.803.482 1.655.482 2.554v.506a6.69 6.69 0 0 1-.482 2.505 6.453 6.453 0 0 1-1.373 2.168c-.611.627-1.358 1.125-2.241 1.494-.883.37-1.895.554-3.035.554Zm0-2.867c.819 0 1.51-.176 2.072-.53.562-.37.987-.859 1.276-1.47.289-.626.434-1.332.434-2.12 0-.802-.153-1.509-.458-2.12a3.3 3.3 0 0 0-1.3-1.469c-.563-.37-1.237-.554-2.024-.554-.787 0-1.47.185-2.048.554a3.507 3.507 0 0 0-1.3 1.47c-.306.61-.459 1.317-.459 2.12 0 .787.145 1.493.434 2.12.305.61.739 1.1 1.301 1.47.562.353 1.253.53 2.072.53Z" clip-rule="evenodd"/><path fill="#fff" d="M106.993 24.413a.35.35 0 0 0 .349.348h2.651a.349.349 0 0 0 .349-.348V11.68h-3a.35.35 0 0 0-.349.349v12.384Zm.108-14.805c.322.338.811.506 1.47.506.658 0 1.14-.168 1.445-.506.305-.353.458-.787.458-1.3 0-.547-.153-.988-.458-1.326-.305-.337-.787-.505-1.445-.505-.659 0-1.148.168-1.47.505-.305.338-.457.78-.457 1.325 0 .514.152.948.457 1.301Zm6.244 15.153a.348.348 0 0 1-.348-.348V12.029c0-.193.156-.349.348-.349h1.953c.193 0 .349.156.349.349v2.875a6.34 6.34 0 0 1 .289-.935c.353-.9.875-1.574 1.566-2.024.706-.45 1.582-.674 2.626-.674h.144c1.558 0 2.738.505 3.541 1.517.803.996 1.205 2.49 1.205 4.481v7.144a.349.349 0 0 1-.349.348h-2.651a.349.349 0 0 1-.349-.348V16.98c0-.803-.233-1.453-.698-1.951-.45-.498-1.076-.747-1.879-.747-.819 0-1.486.257-2 .77-.498.499-.747 1.173-.747 2.024v7.337a.348.348 0 0 1-.348.348h-2.652Zm16.767-.289c.787.305 1.782.458 2.987.458h1.53a.349.349 0 0 0 .349-.349v-2.17a.349.349 0 0 0-.349-.348h-1.699c-.642 0-1.14-.168-1.493-.506-.338-.353-.506-.85-.506-1.493l.011-5.927h3.687a.349.349 0 0 0 .349-.348v-1.76a.349.349 0 0 0-.349-.349h-3.682l.007-3.336a.35.35 0 0 0-.349-.35h-2.434a.35.35 0 0 0-.349.348l-.007 3.338h-1.739a.349.349 0 0 0-.349.349v1.76c0 .192.156.348.349.348h1.734l-.011 5.71c0 1.269.193 2.28.578 3.035a3.357 3.357 0 0 0 1.735 1.59Z"/></svg>