<svg xmlns="http://www.w3.org/2000/svg" width="132" height="34" fill="none"><path fill="#fff" d="M20.728 6.48a6.48 6.48 0 1 1 12.96 0 6.48 6.48 0 0 1-12.96 0Z"/><path fill="#fff" d="M27.6 15.832v4.663c0 2.066-.001 3.527-.096 4.669-.094 1.124-.27 1.81-.55 2.347a5.73 5.73 0 0 1-2.443 2.443c-.537.28-1.222.456-2.347.55-1.142.094-2.603.096-4.669.096h-4.303c-2.066 0-3.527-.002-4.669-.096-1.124-.094-1.81-.27-2.346-.55a5.73 5.73 0 0 1-2.444-2.443c-.28-.538-.456-1.223-.55-2.347-.094-1.142-.095-2.603-.095-4.67v-4.302c0-2.066 0-3.527.096-4.669.093-1.124.27-1.81.549-2.347a5.73 5.73 0 0 1 2.444-2.443c.537-.28 1.222-.456 2.346-.55 1.142-.094 2.604-.096 4.67-.096h4.663a9.324 9.324 0 0 1 .58-2.88h-5.307c-1.988 0-3.57 0-4.844.106-1.306.109-2.42.336-3.436.864a8.61 8.61 0 0 0-3.672 3.672C.65 8.866.422 9.979.313 11.285.208 12.56.208 14.14.208 16.128v4.43c0 1.988 0 3.57.105 4.844.109 1.306.336 2.42.864 3.436A8.61 8.61 0 0 0 4.85 32.51c1.017.528 2.13.755 3.436.864 1.275.106 2.856.106 4.843.106h4.431c1.988 0 3.569 0 4.843-.106 1.306-.109 2.42-.336 3.436-.864a8.61 8.61 0 0 0 3.672-3.672c.529-1.017.755-2.13.864-3.436.106-1.275.106-2.856.106-4.843v-5.307a9.324 9.324 0 0 1-2.88.58Zm24.622-.247c0 .884-.213 1.713-.64 2.486-.41.774-1.065 1.398-1.965 1.871-.884.474-2.005.71-3.363.71h-2.77V27h-3.316V10.47h6.086c1.279 0 2.368.22 3.268.662.9.442 1.571 1.05 2.013 1.824.458.774.687 1.65.687 2.629Zm-6.11 2.392c.916 0 1.595-.206 2.037-.616.442-.426.663-1.018.663-1.776 0-1.61-.9-2.416-2.7-2.416h-2.629v4.808h2.629Zm10.832-2.061a4.693 4.693 0 0 1 1.658-1.634c.695-.395 1.484-.592 2.369-.592v3.481h-.877c-1.042 0-1.831.245-2.368.735-.521.489-.782 1.342-.782 2.557V27H53.63V13.88h3.316v2.036Zm11.138 11.297c-1.263 0-2.4-.276-3.41-.829a6.218 6.218 0 0 1-2.392-2.392c-.568-1.026-.852-2.21-.852-3.552s.292-2.527.876-3.553a6.17 6.17 0 0 1 2.44-2.368c1.025-.569 2.17-.853 3.433-.853s2.408.284 3.434.853a6.011 6.011 0 0 1 2.416 2.368c.6 1.026.9 2.21.9 3.553 0 1.342-.308 2.526-.924 3.552a6.293 6.293 0 0 1-2.463 2.392c-1.026.553-2.179.829-3.458.829Zm0-2.89c.6 0 1.16-.142 1.682-.426.537-.3.963-.742 1.279-1.326.316-.584.473-1.295.473-2.131 0-1.248-.331-2.203-.994-2.866-.648-.679-1.445-1.018-2.392-1.018-.947 0-1.745.34-2.392 1.018-.632.663-.948 1.618-.948 2.866 0 1.247.308 2.21.924 2.889.632.663 1.421.995 2.368.995Zm7.477-3.931c0-1.326.26-2.502.782-3.529.536-1.026 1.263-1.815 2.178-2.368.916-.552 1.934-.829 3.055-.829.853 0 1.666.19 2.44.569.773.363 1.39.852 1.847 1.468V9.474h3.363V27h-3.363v-1.942c-.41.647-.987 1.168-1.729 1.563-.742.395-1.602.592-2.581.592a5.635 5.635 0 0 1-3.032-.853c-.915-.568-1.642-1.365-2.178-2.392-.521-1.042-.782-2.234-.782-3.576Zm10.326.048c0-.806-.158-1.492-.474-2.06-.316-.585-.742-1.027-1.279-1.327a3.352 3.352 0 0 0-1.729-.474 3.36 3.36 0 0 0-1.705.45c-.52.3-.947.742-1.279 1.326-.316.569-.473 1.248-.473 2.037 0 .79.157 1.484.473 2.084.332.585.758 1.035 1.28 1.35a3.31 3.31 0 0 0 1.704.474c.616 0 1.192-.15 1.73-.45a3.446 3.446 0 0 0 1.278-1.326c.316-.584.474-1.28.474-2.084Zm18.016-6.56V27h-3.339v-1.658a4.465 4.465 0 0 1-1.682 1.35 5.213 5.213 0 0 1-2.226.474c-1.026 0-1.934-.214-2.723-.64-.79-.442-1.413-1.081-1.871-1.918-.442-.853-.663-1.863-.663-3.032V13.88h3.315v7.224c0 1.042.26 1.847.782 2.415.52.553 1.231.83 2.131.83.916 0 1.634-.277 2.155-.83.521-.568.782-1.373.782-2.415V13.88h3.339Zm1.472 6.56c0-1.358.276-2.542.828-3.553.553-1.026 1.319-1.816 2.298-2.368.979-.569 2.1-.853 3.363-.853 1.626 0 2.968.41 4.026 1.232 1.073.805 1.792 1.942 2.155 3.41h-3.576c-.19-.568-.513-1.01-.971-1.326-.442-.332-.995-.497-1.658-.497-.947 0-1.697.347-2.25 1.042-.553.679-.829 1.65-.829 2.913 0 1.247.276 2.218.829 2.913.553.678 1.303 1.018 2.25 1.018 1.342 0 2.218-.6 2.629-1.8h3.576c-.363 1.421-1.082 2.55-2.155 3.387-1.074.837-2.416 1.255-4.026 1.255-1.263 0-2.384-.276-3.363-.829a6.03 6.03 0 0 1-2.298-2.368c-.552-1.026-.828-2.218-.828-3.576Zm18.012-3.837v6.347c0 .442.102.766.308.971.221.19.584.284 1.089.284h1.539V27h-2.084c-2.794 0-4.191-1.358-4.191-4.074v-6.323h-1.564v-2.724h1.564v-3.244h3.339v3.245h2.936v2.723h-2.936Zm5.842 10.563c-.6 0-1.097-.182-1.492-.545a1.899 1.899 0 0 1-.568-1.397c0-.553.189-1.011.568-1.374.395-.379.892-.569 1.492-.569.584 0 1.066.19 1.445.569.379.363.568.82.568 1.373s-.189 1.019-.568 1.398c-.379.363-.861.545-1.445.545Z"/></svg>