<svg xmlns="http://www.w3.org/2000/svg" width="87" height="27" fill="none"><path fill="#fff" d="M51.974 24.323c0 .288.241.518.53.505l4.272-.205a.505.505 0 0 0 .481-.504V10.615a.505.505 0 0 0-.525-.505l-4.273.171a.505.505 0 0 0-.485.505v13.537Zm.664-16.74c.523.524 1.178.785 1.962.785.826 0 1.49-.261 1.993-.785.523-.543.785-1.217.785-2.023 0-.784-.261-1.449-.785-1.992-.503-.544-1.167-.815-1.993-.815-.784 0-1.439.271-1.962.815-.523.543-.785 1.208-.785 1.992 0 .806.262 1.48.785 2.023Z"/><path fill="#fff" fill-rule="evenodd" d="M39.26 16.188v7.34a.505.505 0 0 1-.412.496l-4.394.822a.505.505 0 0 1-.598-.497V3.952c0-.279.227-.505.506-.505h8.612c1.45 0 2.718.272 3.804.815 1.107.544 1.973 1.288 2.597 2.234.624.946.936 2.053.936 3.321 0 1.268-.322 2.386-.966 3.352-.624.946-1.5 1.69-2.627 2.234a7.932 7.932 0 0 1-1.57.532l5.731 7.801a.505.505 0 0 1-.526.79l-4.737-1.148a.505.505 0 0 1-.273-.173l-5.696-7.017h-.386Zm0-3.865h2.96c.885 0 1.56-.211 2.022-.634.483-.443.725-1.036.725-1.781 0-.725-.242-1.308-.725-1.751-.463-.463-1.137-.694-2.023-.694h-2.958v4.86Z" clip-rule="evenodd"/><path fill="#fff" d="M64.424 25.276c-.905 0-1.8-.121-2.687-.363a12.381 12.381 0 0 1-2.445-.966 8.66 8.66 0 0 1-1.55-1.108.48.48 0 0 1-.009-.692l2.16-2.205c.2-.204.527-.2.745-.016.396.336.843.61 1.341.82a5.653 5.653 0 0 0 2.174.423c.443 0 .775-.06.996-.18.242-.122.362-.293.362-.514 0-.322-.17-.564-.513-.725-.322-.18-.755-.332-1.298-.452a45.644 45.644 0 0 1-1.66-.483 9.177 9.177 0 0 1-1.691-.786 3.74 3.74 0 0 1-1.329-1.358c-.322-.584-.483-1.329-.483-2.234 0-.946.252-1.771.755-2.476.523-.725 1.248-1.288 2.174-1.69.926-.423 2.012-.635 3.26-.635 1.269 0 2.476.222 3.623.665.976.359 1.956 1.055 2.66 1.788a.474.474 0 0 1-.066.705l-2.499 1.922c-.21.162-.506.129-.703-.048-.343-.31-.667-.47-1.112-.624-.584-.221-1.118-.332-1.6-.332-.464 0-.796.07-.997.212a.569.569 0 0 0-.302.513c0 .261.161.473.483.634.342.16.775.312 1.298.453.544.12 1.097.281 1.66.483a6.805 6.805 0 0 1 1.661.845c.544.342.977.805 1.299 1.389.342.584.513 1.338.513 2.264 0 1.47-.564 2.637-1.69 3.502-1.128.846-2.637 1.268-4.53 1.268Z"/><path fill="#fff" fill-rule="evenodd" d="M74.59 24.219c1.268.644 2.727.966 4.378.966 1.308 0 2.475-.211 3.502-.634a6.966 6.966 0 0 0 2.333-1.527.48.48 0 0 0-.01-.68l-2.033-2.032c-.206-.206-.542-.193-.758.003a4.06 4.06 0 0 1-1.132.734c-.544.241-1.178.362-1.902.362-.765 0-1.41-.151-1.932-.453-.524-.302-.926-.745-1.208-1.328a3.959 3.959 0 0 1-.182-.465l9.964-.047a.486.486 0 0 0 .48-.384c.049-.248.08-.472.094-.674.04-.322.06-.634.06-.936 0-1.43-.332-2.697-.996-3.804a6.697 6.697 0 0 0-2.718-2.627c-1.147-.644-2.465-.966-3.955-.966-1.53 0-2.908.342-4.136 1.026a7.525 7.525 0 0 0-2.868 2.748c-.704 1.147-1.057 2.466-1.057 3.955 0 1.51.362 2.848 1.087 4.015.725 1.168 1.721 2.084 2.99 2.748Zm1.045-8.446c.047-.15.101-.293.163-.43.261-.584.634-1.037 1.117-1.36.483-.321 1.056-.482 1.72-.482.645 0 1.178.14 1.6.423.424.281.746.694.967 1.237.073.172.135.36.186.565l-5.753.047Z" clip-rule="evenodd"/><path fill="#fff" d="M80.014 8.23V4.333h.99V8.23h-.99Zm-1.201-3.072v-.852h3.393v.852h-3.393ZM82.38 8.23V4.306h.714l1.505 2.275h-.337l1.5-2.275h.714V8.23h-.98V5.944l.155.044-.902 1.356h-.642l-.897-1.356.155-.044V8.23h-.985ZM8.055 1.646c0-.3.223-.552.52-.59L12.14.612a.594.594 0 0 1 .668.59v11.723a.594.594 0 0 1-.668.59l-3.565-.446a.594.594 0 0 1-.52-.59V1.647ZM.926 3.131c0-.3.223-.552.52-.589l3.565-.446a.594.594 0 0 1 .668.59v9.347a.594.594 0 0 1-.668.59l-3.564-.446a.594.594 0 0 1-.52-.59V3.132Zm18.56-1.528c.265.067.45.304.45.577v4.952c0 .3-.223.552-.52.59l-3.564.445a.594.594 0 0 1-.668-.59V1.29c0-.387.363-.67.738-.577l3.564.891Zm6.985 2.062a.594.594 0 0 0-.45-.576l-3.564-.892a.594.594 0 0 0-.738.577V7.28c0 .357.313.633.667.59l3.565-.446a.594.594 0 0 0 .52-.59v-3.17Z"/><path fill="#fff" d="m26.471 9.736-11.584.297a4.182 4.182 0 0 0 4.17 3.861h2.662v2.528L.926 14.489v12.385l25.545-1.782V9.736Z"/></svg>