<svg xmlns="http://www.w3.org/2000/svg" width="130" height="28" fill="none"><path fill="#fff" d="m.986 18.26 9.134-4.065 5.258 3.049 1.062 10.003-6.479-.053.956-6.954-1.115-.642-5.47 4.279L.986 18.26Zm14.977-1.444 8.072 5.938 3.186-5.724-6.479-2.622v-1.283l6.48-2.675-3.187-5.67-8.072 5.937v6.099Zm-.585-6.58L16.44.233 9.961.34l.956 6.954-1.115.642-5.523-4.28L.986 9.22l9.134 4.065 5.258-3.049Zm33.459 2.305v9.372h3.487V9.97h-5.078v2.571h1.59Zm-.109-4.25c.32.335.806.502 1.46.502.654 0 1.133-.167 1.438-.502.32-.348.48-.784.48-1.307 0-.538-.16-.974-.48-1.308-.305-.349-.784-.523-1.438-.523-.654 0-1.14.174-1.46.523-.305.334-.458.77-.458 1.308 0 .523.153.959.458 1.307Zm-12.031 13.36c.988.45 2.202.676 3.64.676 1.351 0 2.514-.21 3.487-.632.974-.421 1.722-1.01 2.245-1.765.537-.77.806-1.664.806-2.681 0-.988-.254-1.824-.762-2.507-.494-.697-1.184-1.242-2.07-1.634-.887-.407-1.911-.661-3.074-.763l-1.22-.109c-.727-.058-1.25-.254-1.57-.588a1.648 1.648 0 0 1-.48-1.177c0-.349.088-.669.262-.96.175-.304.436-.544.785-.718.363-.175.807-.262 1.33-.262.552 0 1.01.102 1.373.305.08.043.155.09.227.138l.017.012a2.034 2.034 0 0 1 .605.657c.19.32.284.675.284 1.068h3.487c0-1.047-.24-1.955-.72-2.725-.479-.784-1.169-1.387-2.07-1.809-.886-.436-1.954-.654-3.204-.654-1.191 0-2.222.204-3.094.61-.872.393-1.555.96-2.049 1.7-.48.742-.72 1.62-.72 2.638 0 1.41.473 2.542 1.418 3.4.944.857 2.208 1.351 3.792 1.482l1.199.109c.973.087 1.677.283 2.113.588.436.29.654.69.654 1.199 0 .234-.038.453-.114.658a1.812 1.812 0 0 1-.234.431c-.233.306-.574.545-1.025.72-.45.174-1.01.261-1.678.261-.74 0-1.344-.101-1.809-.305-.465-.218-.813-.501-1.046-.85a2.1 2.1 0 0 1-.327-1.133H33.69c0 1.032.254 1.947.763 2.746.508.785 1.257 1.41 2.244 1.874Zm23.407.414c-1.206 0-2.18-.145-2.92-.436a3.071 3.071 0 0 1-1.635-1.503c-.334-.712-.501-1.671-.501-2.877v-4.73h-1.809V9.97h1.809V6.745h3.247V9.97h3.487v2.55h-3.487v4.86c0 .566.146 1.002.436 1.307.305.29.734.436 1.286.436h1.765v2.942h-1.678Z"/><path fill="#fff" fill-rule="evenodd" d="M65.98 21.804c.785.349 1.686.523 2.703.523 1.003 0 1.89-.174 2.66-.523a5.195 5.195 0 0 0 1.917-1.46 5.034 5.034 0 0 0 1.024-2.136h-3.203c-.146.363-.422.668-.829.915-.406.247-.93.37-1.569.37a3.67 3.67 0 0 1-1.061-.14 2.371 2.371 0 0 1-.639-.295 2.52 2.52 0 0 1-.959-1.22 4.187 4.187 0 0 1-.145-.468 4.93 4.93 0 0 1-.1-.513h8.723V15.68c0-1.09-.232-2.093-.697-3.008a5.586 5.586 0 0 0-2.027-2.245c-.872-.581-1.947-.872-3.226-.872-.973 0-1.845.175-2.615.524a5.359 5.359 0 0 0-1.896 1.372 6.352 6.352 0 0 0-1.177 1.984 6.703 6.703 0 0 0-.392 2.288v.436c0 .77.13 1.526.392 2.267a6.701 6.701 0 0 0 1.177 1.983 5.77 5.77 0 0 0 1.94 1.395Zm-.141-7.102a3.886 3.886 0 0 1 .207-.679c.218-.537.538-.944.959-1.22a2.39 2.39 0 0 1 .512-.252 3.11 3.11 0 0 1 1.035-.162c.596 0 1.09.138 1.482.414.407.261.713.646.916 1.155a3.445 3.445 0 0 1 .114.332 4.278 4.278 0 0 1 .127.583h-5.386c.01-.058.022-.115.034-.171Z" clip-rule="evenodd"/><path fill="#fff" d="M75.941 21.913V9.97h2.768v3.008a6.564 6.564 0 0 1 .262-.916c.305-.814.763-1.424 1.373-1.831.61-.421 1.358-.632 2.245-.632h.152c.9 0 1.65.21 2.245.632.61.407 1.068 1.017 1.373 1.83l.024.062.02.056.043-.117c.32-.814.785-1.424 1.395-1.831.61-.421 1.359-.632 2.245-.632h.153c.9 0 1.656.21 2.266.632.625.407 1.097 1.017 1.416 1.83.32.815.48 1.832.48 3.052v6.8h-3.487v-6.996c0-.654-.174-1.184-.523-1.591-.334-.407-.814-.61-1.438-.61-.625 0-1.12.21-1.483.632-.363.406-.544.951-.544 1.634v6.93h-3.51v-6.995c0-.654-.173-1.184-.522-1.591-.334-.407-.807-.61-1.417-.61-.64 0-1.14.21-1.504.632-.363.406-.545.951-.545 1.634v6.93h-3.487Z"/><path fill="#fff" fill-rule="evenodd" d="M103.716 19.612v2.3h2.768V14.59c0-1.104-.218-2.005-.654-2.703-.436-.712-1.075-1.242-1.918-1.59-.828-.35-1.852-.524-3.073-.524a41.158 41.158 0 0 0-1.351.022c-.48.015-.945.036-1.395.066l-.344.023a54.986 54.986 0 0 0-.833.064v2.942a125.517 125.517 0 0 1 1.963-.11 61.861 61.861 0 0 1 2.418-.064c.639 0 1.104.152 1.395.457.29.305.436.763.436 1.373v.044h-2.158c-1.06 0-1.998.138-2.812.414-.813.261-1.445.676-1.896 1.242-.45.553-.675 1.264-.675 2.136 0 .8.181 1.49.544 2.07a3.566 3.566 0 0 0 1.504 1.308c.654.305 1.41.458 2.267.458.828 0 1.526-.153 2.092-.458a3.255 3.255 0 0 0 1.352-1.307 3.93 3.93 0 0 0 .342-.757l.028-.084Zm-.588-2.123v-.96h-2.18c-.61 0-1.082.153-1.416.458-.32.29-.48.69-.48 1.199 0 .24.04.457.12.653.08.197.2.371.36.524.334.29.806.436 1.416.436a3.22 3.22 0 0 0 .595-.057 2.3 2.3 0 0 0 .451-.14 1.77 1.77 0 0 0 .785-.719c.203-.334.319-.799.349-1.394Z" clip-rule="evenodd"/><path fill="#fff" d="M108.571 21.913V9.97h2.768v3.942c.132-1.126.466-2.033 1.002-2.722.727-.915 1.773-1.373 3.139-1.373h.457v3.008h-.872c-.958 0-1.7.261-2.223.784-.523.509-.784 1.25-.784 2.223v6.08h-3.487Zm11.788-5.579h1.155l3.771 5.579h3.923l-4.781-6.852 3.931-5.091h-3.662l-4.337 5.678V6.003h-3.487v15.91h3.487v-5.58Z"/></svg>