<svg xmlns="http://www.w3.org/2000/svg" width="40" height="40" fill="none"><rect width="40" height="40" fill="#fff" rx="20"/><path fill="#6637ED" d="m27.134 18.49-6.25-6.25a1.25 1.25 0 0 0-1.768 0l-6.25 6.25a1.241 1.241 0 0 0-.366.885v7.5a.625.625 0 0 0 .625.625h5a.625.625 0 0 0 .625-.625V22.5h2.5v4.375a.625.625 0 0 0 .625.625h5a.625.625 0 0 0 .625-.625v-7.5a1.24 1.24 0 0 0-.366-.884Zm-.884 7.76H22.5v-4.375a.625.625 0 0 0-.625-.625h-3.75a.625.625 0 0 0-.625.625v4.375h-3.75v-6.875l6.25-6.25 6.25 6.25v6.875Z"/><rect width="39" height="39" x=".5" y=".5" stroke="#E9E9EF" rx="19.5"/></svg>